<svg width="35" height="35" viewBox="0 0 35 35" fill="none" xmlns="http://www.w3.org/2000/svg">
<path fill-rule="evenodd" clip-rule="evenodd" d="M22.5657 2.89701C22.7213 2.28202 22.7732 2.05892 22.8884 1.54323L22.9859 1.07125C22.9837 1.28283 22.9824 1.4401 22.9884 1.54506C22.9917 1.62623 22.9979 1.72964 23.0055 1.85676L23.0056 1.85828C23.01 1.93269 23.015 2.0152 23.0201 2.1061L23.0212 2.12142L23.0212 2.12152L23.0212 2.12166C23.0336 2.29867 23.0428 2.43025 23.0581 2.52195L23.2809 4.38976L23.9928 4.57702L25.1024 3.02337C25.1185 2.99984 25.1357 2.97516 25.1536 2.94929L25.1538 2.94903C25.2104 2.8674 25.2753 2.77397 25.3432 2.66769C25.5543 2.34712 25.6459 2.20723 25.8761 1.8126L25.7829 2.09166C25.7315 2.26008 25.6814 2.42301 25.6327 2.58065C25.5896 2.72091 25.5329 2.912 25.4683 3.1565C25.4001 3.39313 25.35 3.5802 25.3149 3.71662L25.0024 4.87857L25.8251 5.19201L26.8406 1.37865L25.5936 0.95513L24.5642 2.43234L24.5087 2.51656L24.5085 2.51676L24.5084 2.517C24.4341 2.62951 24.3526 2.75287 24.2627 2.89372C24.093 3.15833 24.0401 3.25397 23.8924 3.54217C23.9103 3.03727 23.9035 2.6836 23.8549 2.25825L23.6698 0.449682L22.3537 0.195312L21.3759 4.01982L22.2405 4.15569L22.5657 2.89701ZM17.2369 0.19873L16.2769 0.353026L15.2482 4.62757L16.2197 4.37613L16.4426 3.41607L18.0141 3.16463L18.5227 4.00468L19.5456 3.94182L17.2369 0.19873ZM13.2622 4.52782L13.6269 5.15121L10.8063 6.80032L8.83225 3.42585L11.6144 1.79924L11.9781 2.42245L10.0052 3.57635L10.4263 4.29594L12.2378 3.23677L12.5752 3.81427L10.7644 4.87344L11.2505 5.70439L13.2622 4.52782ZM5.28351 7.86169L7.75004 9.88092L8.34271 9.15621L5.87692 7.13735L6.7033 6.12773L6.14445 5.67074L3.90249 8.40792L4.46115 8.86564L5.28351 7.86169ZM29.6209 7.59342C32.6042 10.1415 34.6026 13.8376 34.8974 18.0592C35.4818 26.41 29.1853 33.6529 20.835 34.2375C16.4686 34.5424 12.4066 32.966 9.43992 30.1996L9.4551 30.1824C12.3139 32.447 15.9934 33.6935 19.9186 33.4184C28.2699 32.8345 34.5649 25.5913 33.9818 17.2406C33.7172 13.4598 32.0858 10.1011 29.6063 7.61024L29.6209 7.59342ZM3.4914 24.2012C3.5704 23.8773 3.75747 23.6632 4.04074 23.5505C4.72777 23.2762 5.37641 23.6984 5.76189 24.6636C6.17847 25.7071 5.95464 26.4919 5.1416 26.8304L4.93844 26.321C5.5035 26.0739 5.64596 25.5443 5.34477 24.7887C5.09753 24.1717 4.70309 23.8976 4.2898 24.0629C3.95735 24.1958 3.8778 24.5053 4.00051 25.2075L4.04842 25.501L4.09487 25.7605C4.18301 26.2816 4.19361 26.4651 4.14296 26.6869C4.07658 26.9637 3.89828 27.1669 3.61465 27.2803C2.97169 27.5369 2.35286 27.1583 2.00541 26.2888C1.6298 25.3476 1.83077 24.6483 2.55493 24.3246L2.75609 24.828C2.27533 25.0963 2.16579 25.5019 2.41431 26.1257C2.64161 26.6953 2.9993 26.9418 3.38095 26.7895C3.68634 26.6677 3.73846 26.4036 3.61045 25.718L3.55577 25.4545C3.43233 24.7807 3.41094 24.4903 3.4914 24.2012ZM4.69339 20.4134L3.32609 20.4441L2.69391 19.7476L4.64237 18.1347L4.62646 17.4182L2.32744 19.3557L0.720215 17.5766L0.73649 18.3192L2.73323 20.4635L0.784767 20.5008L0.797385 21.0622L4.70583 20.9752L4.69339 20.4134ZM5.56421 13.8318L5.37824 14.3617L3.87232 13.8325L1.1719 14.6467L1.39884 14.0009L3.56619 13.4105C3.29432 13.0833 3.04606 12.7375 2.79781 12.3916C2.61241 12.1333 2.42702 11.875 2.2318 11.6246L2.44722 11.0092L4.05774 13.3028L5.56421 13.8318ZM17.6941 2.58174L16.8883 1.13023C16.824 1.57241 16.7283 2.00807 16.6325 2.44415L16.6325 2.4443L16.6324 2.44445L16.6324 2.44456L16.6324 2.44468C16.609 2.55126 16.5856 2.65787 16.5626 2.76461L17.6941 2.58174ZM18.3513 12.7195C19.8936 11.3712 21.4712 10.6352 22.7915 10.6451C24.2967 10.6575 25.1679 11.0058 26.3803 12.1023C26.3803 12.1023 26.3527 12.1449 26.3346 12.148C25.748 11.7232 24.9291 11.5099 23.8945 11.5137C22.9507 11.5179 21.5896 11.7562 19.4313 13.571C18.8376 14.0711 18.0767 14.815 17.2712 15.6054C17.2712 15.6054 16.6182 16.25 16.5912 16.2511C17.4607 16.5129 18.33 16.7758 19.197 17.0455C20.0443 16.1904 20.8582 15.3856 21.4829 14.9025C23.0109 13.7177 24.26 13.4681 25.0374 13.4681C25.829 13.4681 26.7874 13.595 27.8947 14.5425C27.8947 14.5425 27.8675 14.5845 27.849 14.5882C27.433 14.294 26.4218 14.2419 25.8432 14.2796C25.0482 14.3314 23.6844 14.7795 22.4544 15.874C22.0243 16.2562 21.5549 16.6956 21.0202 17.1962L20.7171 17.4798L23.2601 18.1884L24.0716 17.4798C25.2855 16.4811 26.4842 15.9711 27.6318 15.9711C28.5784 15.9711 29.2612 16.3502 29.512 16.514C29.8161 16.711 30.325 17.0435 30.312 17.6627C30.2955 18.5002 28.9877 19.2328 27.4547 19.2628C26.4037 19.2834 25.4565 19.191 24.3916 18.9542L22.7744 20.5886L22.7063 20.6589L22.7063 20.6589C21.8538 21.5399 20.8946 22.531 19.9285 23.4173C17.7538 25.4153 16.3572 26.173 14.7796 26.2175C13.3853 26.2564 12.5764 25.5854 11.9166 25.0174C11.9166 25.0174 11.9526 24.9837 11.9795 24.9888C12.588 25.346 13.3154 25.377 13.8196 25.3431C14.7972 25.2782 15.9022 24.8035 17.1969 23.8859C17.9785 23.3322 18.7103 22.6556 20.0485 21.3543L21.3572 20.0571C21.3572 20.0571 22.8506 18.5774 22.8773 18.577C22.4685 18.453 22.058 18.334 21.6474 18.215L21.6471 18.2149L21.6468 18.2148L21.6466 18.2147L21.6465 18.2147C21.2218 18.0916 20.7971 17.9685 20.3743 17.8398L19.157 19.0513L17.4198 20.7543C16.1324 21.9577 14.8744 22.6427 13.7853 22.7373C12.6414 22.8364 11.9788 22.509 11.2766 21.9315C11.2766 21.9315 11.3053 21.8942 11.3223 21.8915C11.5222 22.0136 12.1253 22.1954 12.9795 22.0058C14.1925 21.7361 15.0353 20.9962 16.1969 19.9714L16.2597 19.9142C16.9271 19.3254 17.6345 18.6264 18.3389 17.9304L18.339 17.9304C18.5168 17.7546 18.6945 17.579 18.8713 17.4055L16.174 16.674C15.4025 17.4146 14.4159 18.3426 13.591 18.9199C12.1002 19.9626 10.6815 20.1458 8.99071 19.5142C8.66868 19.3931 7.61074 18.9256 7.59062 18.0055C7.58367 17.6502 7.73225 17.3165 8.03636 17.0055C8.83019 16.1946 10.577 15.6683 12.4823 15.6683C13.3352 15.6683 14.1626 15.7384 15.0025 15.8911L16.0311 14.9082L16.1691 14.7757C17.0322 13.947 17.8995 13.1141 18.3513 12.7195ZM13.1452 16.3254C13.2671 16.322 13.396 16.3232 13.5338 16.3254C13.8096 16.3298 14.1255 16.3509 14.5053 16.394C14.4744 16.396 14.0596 16.7712 14.0596 16.7712L13.8139 16.994L13.8021 17.0047C12.8545 17.8628 11.2851 19.2839 9.87648 19.1885C9.17554 19.1409 8.8307 18.8562 8.8307 18.3198C8.8307 18.2474 8.87669 16.5395 12.7967 16.3426C12.8337 16.3408 12.8711 16.3386 12.909 16.3365C12.9854 16.3322 13.0638 16.3278 13.1452 16.3254ZM28.3805 16.6569C28.3441 16.6556 28.311 16.6548 28.2719 16.6569C27.685 16.6876 26.7912 17.0887 25.7346 17.7998C25.4998 17.958 25.225 18.1816 24.8945 18.4799C26.0936 18.6152 27.19 18.5528 27.9061 18.297C28.7243 18.0062 29.1405 17.6365 29.1405 17.1998C29.1405 16.7735 28.7272 16.6695 28.3805 16.6569Z" fill="white"/>
</svg>
